<?xml version="1.0" standalone="no"?><!DOCTYPE svg PUBLIC "-//W3C//DTD SVG 1.1//EN" "http://www.w3.org/Graphics/SVG/1.1/DTD/svg11.dtd"><svg t="1523158583390" class="icon" style="" viewBox="0 0 1024 1024" version="1.1" xmlns="http://www.w3.org/2000/svg" p-id="2956" xmlns:xlink="http://www.w3.org/1999/xlink" width="200" height="200"><defs><style type="text/css"></style></defs><path d="M569.376 479.968 512 537.504 454.624 479.968 432 502.64 488.64 559.44 432 559.44 432 591.536 496 591.536 496 623.616 432 623.616 432 655.696 496 655.696 496 719.872 528 719.872 528 655.696 592 655.696 592 623.616 528 623.616 528 591.536 592 591.536 592 559.44 535.376 559.44 592 502.64Z" p-id="2957" fill="#ffffff"></path><path d="M667.936 314.752c17.76-22.24 28.096-46.736 28.096-69.856C696.032 207.2 672.128 144 512 144c-68.72 0-184.048 13.104-184.048 100.896 0 23.12 10.336 47.6 28.112 69.856C238.704 388.88 160 530.992 160 615.92 160 776.352 298.16 880 512 880c213.824 0 352-103.648 352-264.08C864 530.992 785.28 388.864 667.936 314.752zM512 848c-194.4 0-320-91.088-320-232.08 0-75.536 74.4-206.688 181.152-274.112l30.224-19.088-22.32-27.936c-13.616-17.056-21.12-34.768-21.12-49.888C359.952 182.72 466.288 176 512 176c56.784 0 152.032 8.944 152.032 68.88 0 15.136-7.488 32.848-21.104 49.888l-22.304 27.936 30.224 19.088C757.6 409.232 832 540.384 832 615.92 832 756.912 706.384 848 512 848z" p-id="2958" fill="#ffffff"></path></svg>